Fly_normalized_Motion_pl10
version=1
nRows=8
nColumns=43
inDegrees=yes
endheader
time		pelvis_tilt		pelvis_list		pelvis_rotation		pelvis_tx		pelvis_ty		pelvis_tz		hip_flexion_r		hip_adduction_r		hip_rotation_r		knee_angle_r		ankle_angle_r		subtalar_angle_r		mtp_angle_r		hip_flexion_l		hip_adduction_l		hip_rotation_l		knee_angle_l		ankle_angle_l		subtalar_angle_l		mtp_angle_l		lumbar_extension		lumbar_bending		lumbar_rotation		neck_flexion		neck_lateral_bending		neck_rotation		arm_flex_r		arm_add_r		arm_rot_r		elbow_flex_r		pro_sup_r		wrist_flex_r		wrist_dev_r		hand_finger_flex_r		arm_flex_l		arm_add_l		arm_rot_l		elbow_flex_l		pro_sup_l		wrist_flex_l		wrist_dev_l		hand_finger_flex_l		
0.180000		-1.027881		-17.270375		81.981160		0.058384		1.766876		1.538744		51.837706		-1.417163		8.759689		-135.900236		5.441319		5.273504		35.197888		66.270511		-5.181313		4.343484		-129.082924		-25.051243		16.282488		17.658526		-27.940912		-2.826800		6.368663		20.171315		2.870126		-2.709258		90.354350		-22.135179		16.758861		71.134372		108.627137		10.856220		4.256834		-13.710119		89.726724		-21.184932		26.852207		48.477688		115.520850		-13.256151		4.757871		-1.791859		
0.184167		-1.114274		-16.890891		82.165748		0.057878		1.767755		1.529252		50.935299		-1.544179		8.682727		-135.281633		3.318964		3.967902		34.458175		65.888190		-5.007123		3.836442		-128.111795		-22.180607		16.586529		19.788959		-28.065447		-2.890567		6.293188		19.913248		2.966033		-2.811886		90.254052		-22.266458		16.868072		70.832675		109.638581		10.922409		4.080811		-13.122432		89.645058		-21.020355		27.087968		48.325443		116.165966		-12.917758		4.920084		-2.040280		
0.188333		-1.175937		-16.681828		82.428683		0.056992		1.768041		1.519865		50.240219		-1.717193		8.687124		-134.646848		1.091715		3.649109		33.672451		65.808868		-4.760837		3.309049		-127.191941		-19.797217		16.233658		21.378853		-27.982517		-2.835451		6.172575		19.439637		3.018732		-2.912503		90.161574		-22.439117		17.156798		70.466087		110.374736		11.027336		4.096542		-12.613659		89.436472		-20.918762		27.346437		48.215191		116.356775		-12.668126		4.996937		-2.093191		
0.192500		-1.250601		-16.461839		82.638091		0.056160		1.768134		1.510276		49.457867		-1.868994		8.707586		-133.963339		-0.813985		3.336807		32.895434		65.767037		-4.573713		2.768905		-126.235543		-18.380943		15.775337		22.548365		-27.889850		-2.817062		6.119278		18.730619		3.059910		-2.994752		89.922965		-22.758655		17.459873		70.258056		111.013496		11.166771		4.092094		-12.144110		89.088503		-20.914067		27.665515		48.302562		116.474349		-12.462943		4.979527		-2.081744		
0.196667		-1.454075		-16.005709		82.800962		0.055500		1.768693		1.501070		48.608443		-2.096904		8.675687		-133.315733		-2.836284		2.024534		29.057515		65.493534		-4.271119		2.048485		-125.106458		-18.111060		13.908147		27.561292		-28.153297		-2.971963		5.913490		18.488938		3.137208		-3.091866		89.800497		-22.647622		17.387966		69.700519		113.041784		10.930290		3.646488		-9.898383		88.995790		-20.894099		27.904576		48.097253		116.561590		-12.161191		4.986785		-2.096321		
0.200833		-1.678915		-15.849976		82.906707		0.054803		1.768362		1.492003		48.188120		-2.296531		8.661372		-132.672650		-5.144158		0.316606		26.886345		65.650495		-3.990753		1.422289		-124.081066		-17.856623		11.793874		28.784102		-28.051225		-3.115338		5.859722		18.019338		3.001172		-3.157157		89.607633		-22.964578		17.824816		69.343683		113.270014		10.803588		3.834550		-9.341660		88.688929		-20.895548		28.158247		48.118694		116.555856		-11.906133		4.919066		-1.883682		
0.205000		-1.778940		-15.679827		83.004081		0.054245		1.768000		1.483142		47.896376		-2.361436		8.557264		-131.978633		-7.811497		-1.588901		24.186362		65.843259		-3.831295		0.994958		-123.018033		-17.860935		9.505032		29.515887		-28.009472		-3.177954		5.852041		17.582248		2.997505		-3.249442		89.402604		-23.182869		18.186600		68.859941		113.432959		10.836454		4.045431		-8.945241		88.407685		-20.912622		28.334768		48.094093		116.575167		-11.635096		4.922438		-1.587151		
0.209167		-1.820310		-15.543481		83.058252		0.053802		1.767450		1.474489		47.812562		-2.317958		8.421595		-131.222692		-11.081004		-3.835009		21.681438		66.091441		-3.818024		0.658893		-121.920305		-17.711882		7.001555		29.330385		-27.970248		-3.204150		5.906117		17.262004		2.944010		-3.313719		89.167381		-23.362594		18.531610		68.299066		113.347961		10.975909		4.294914		-8.945533		88.121346		-20.952570		28.455755		48.077585		116.617835		-11.329079		4.980003		-1.282409		
